<mxfile host="Electron" modified="2023-10-30T09:49:40.150Z" agent="Mozilla/5.0 (Macintosh; Intel Mac OS X 10_15_7) AppleWebKit/537.36 (KHTML, like Gecko) draw.io/22.0.3 Chrome/114.0.5735.289 Electron/25.8.4 Safari/537.36" etag="HNMf7NRcQZzrphU5giQm" version="22.0.3" type="device" pages="2">
  <diagram name="Page-1" id="GavNfFUJkx5YJLS3IbDN">
    <mxGraphModel dx="1699" dy="824" grid="1" gridSize="10" guides="1" tooltips="1" connect="1" arrows="1" fold="1" page="1" pageScale="1" pageWidth="827" pageHeight="1169" math="0" shadow="0">
      <root>
        <mxCell id="0" />
        <mxCell id="1" parent="0" />
        <mxCell id="xeWCrQ4HdHet1reBAJsR-8" value="" style="rounded=0;whiteSpace=wrap;html=1;dashed=1;dashPattern=12 12;" parent="1" vertex="1">
          <mxGeometry x="40" y="20" width="250" height="330" as="geometry" />
        </mxCell>
        <mxCell id="xeWCrQ4HdHet1reBAJsR-3" value="Consumer Zone" style="text;html=1;strokeColor=none;fillColor=none;align=center;verticalAlign=middle;whiteSpace=wrap;rounded=0;fontStyle=1" parent="1" vertex="1">
          <mxGeometry x="180" y="20" width="110" height="30" as="geometry" />
        </mxCell>
        <mxCell id="xeWCrQ4HdHet1reBAJsR-5" value="Leistungserbringerinstitution" style="text;html=1;strokeColor=none;fillColor=none;align=center;verticalAlign=middle;whiteSpace=wrap;rounded=0;fontStyle=0;fontColor=#A8A8A8;" parent="1" vertex="1">
          <mxGeometry x="120" y="40" width="170" height="30" as="geometry" />
        </mxCell>
        <mxCell id="xeWCrQ4HdHet1reBAJsR-6" value="Document &lt;br&gt;Consumer" style="ellipse;whiteSpace=wrap;html=1;labelBackgroundColor=none;fillColor=#A8A8A8;strokeColor=#23445d;" parent="1" vertex="1">
          <mxGeometry x="80" y="180" width="120" height="80" as="geometry" />
        </mxCell>
        <mxCell id="xeWCrQ4HdHet1reBAJsR-7" value="Document &lt;br&gt;Source" style="ellipse;whiteSpace=wrap;html=1;labelBackgroundColor=none;fillColor=#A8A8A8;strokeColor=#23445d;" parent="1" vertex="1">
          <mxGeometry x="160" y="250" width="120" height="80" as="geometry" />
        </mxCell>
        <mxCell id="xeWCrQ4HdHet1reBAJsR-9" value="" style="rounded=0;whiteSpace=wrap;html=1;dashed=1;dashPattern=12 12;" parent="1" vertex="1">
          <mxGeometry x="40" y="360" width="250" height="160" as="geometry" />
        </mxCell>
        <mxCell id="xeWCrQ4HdHet1reBAJsR-10" value="Consumer Zone" style="text;html=1;strokeColor=none;fillColor=none;align=right;verticalAlign=middle;whiteSpace=wrap;rounded=0;fontStyle=1" parent="1" vertex="1">
          <mxGeometry x="180" y="360" width="100" height="30" as="geometry" />
        </mxCell>
        <mxCell id="xeWCrQ4HdHet1reBAJsR-11" value="KostentrÃ¤ger" style="text;html=1;strokeColor=none;fillColor=none;align=right;verticalAlign=middle;whiteSpace=wrap;rounded=0;fontStyle=0;fontColor=#A8A8A8;" parent="1" vertex="1">
          <mxGeometry x="120" y="380" width="160" height="30" as="geometry" />
        </mxCell>
        <mxCell id="xeWCrQ4HdHet1reBAJsR-13" value="Document &lt;br&gt;Source" style="ellipse;whiteSpace=wrap;html=1;labelBackgroundColor=none;fillColor=#A8A8A8;strokeColor=#23445d;" parent="1" vertex="1">
          <mxGeometry x="150" y="420" width="120" height="80" as="geometry" />
        </mxCell>
        <mxCell id="xeWCrQ4HdHet1reBAJsR-14" value="" style="rounded=0;whiteSpace=wrap;html=1;dashed=1;dashPattern=12 12;" parent="1" vertex="1">
          <mxGeometry x="40" y="530" width="250" height="160" as="geometry" />
        </mxCell>
        <mxCell id="xeWCrQ4HdHet1reBAJsR-15" value="Consumer Zone" style="text;html=1;strokeColor=none;fillColor=none;align=right;verticalAlign=middle;whiteSpace=wrap;rounded=0;fontStyle=1" parent="1" vertex="1">
          <mxGeometry x="180" y="530" width="100" height="30" as="geometry" />
        </mxCell>
        <mxCell id="xeWCrQ4HdHet1reBAJsR-16" value="Ombudsstelle" style="text;html=1;strokeColor=none;fillColor=none;align=right;verticalAlign=middle;whiteSpace=wrap;rounded=0;fontStyle=0;fontColor=#A8A8A8;" parent="1" vertex="1">
          <mxGeometry x="120" y="550" width="160" height="30" as="geometry" />
        </mxCell>
        <mxCell id="xeWCrQ4HdHet1reBAJsR-17" value="Document &lt;br&gt;Source" style="ellipse;whiteSpace=wrap;html=1;labelBackgroundColor=none;fillColor=#A8A8A8;strokeColor=#23445d;" parent="1" vertex="1">
          <mxGeometry x="150" y="590" width="120" height="80" as="geometry" />
        </mxCell>
        <mxCell id="xeWCrQ4HdHet1reBAJsR-18" value="" style="rounded=0;whiteSpace=wrap;html=1;dashed=1;dashPattern=12 12;labelBorderColor=none;" parent="1" vertex="1">
          <mxGeometry x="300" y="360" width="210" height="330" as="geometry" />
        </mxCell>
        <mxCell id="xeWCrQ4HdHet1reBAJsR-19" value="Provider Zone" style="text;html=1;strokeColor=none;fillColor=none;align=right;verticalAlign=middle;whiteSpace=wrap;rounded=0;fontStyle=1;labelBorderColor=none;" parent="1" vertex="1">
          <mxGeometry x="410" y="360" width="90" height="30" as="geometry" />
        </mxCell>
        <mxCell id="xeWCrQ4HdHet1reBAJsR-20" value="Aktenanbieter n" style="text;html=1;strokeColor=none;fillColor=none;align=right;verticalAlign=middle;whiteSpace=wrap;rounded=0;fontStyle=0;fontColor=#A8A8A8;labelBorderColor=none;" parent="1" vertex="1">
          <mxGeometry x="350" y="380" width="150" height="30" as="geometry" />
        </mxCell>
        <mxCell id="xeWCrQ4HdHet1reBAJsR-21" value="Document &lt;br&gt;Registry" style="ellipse;whiteSpace=wrap;html=1;labelBackgroundColor=none;fillColor=#333333;strokeColor=#314354;fontColor=#F5F5F5;labelBorderColor=none;" parent="1" vertex="1">
          <mxGeometry x="330" y="470" width="120" height="80" as="geometry" />
        </mxCell>
        <mxCell id="xeWCrQ4HdHet1reBAJsR-23" value="Document &lt;br&gt;Repository" style="ellipse;whiteSpace=wrap;html=1;labelBackgroundColor=none;fillColor=#333333;strokeColor=#314354;fontColor=#F5F5F5;labelBorderColor=none;" parent="1" vertex="1">
          <mxGeometry x="370" y="550" width="120" height="80" as="geometry" />
        </mxCell>
        <mxCell id="xeWCrQ4HdHet1reBAJsR-24" value="" style="rounded=0;whiteSpace=wrap;html=1;dashed=1;dashPattern=12 12;" parent="1" vertex="1">
          <mxGeometry x="300" y="20" width="210" height="330" as="geometry" />
        </mxCell>
        <mxCell id="xeWCrQ4HdHet1reBAJsR-25" value="Provider Zone" style="text;html=1;strokeColor=none;fillColor=none;align=right;verticalAlign=middle;whiteSpace=wrap;rounded=0;fontStyle=1" parent="1" vertex="1">
          <mxGeometry x="410" y="20" width="90" height="30" as="geometry" />
        </mxCell>
        <mxCell id="xeWCrQ4HdHet1reBAJsR-26" value="Aktenanbieter 1" style="text;html=1;strokeColor=none;fillColor=none;align=right;verticalAlign=middle;whiteSpace=wrap;rounded=0;fontStyle=0;fontColor=#A8A8A8;" parent="1" vertex="1">
          <mxGeometry x="350" y="40" width="150" height="30" as="geometry" />
        </mxCell>
        <mxCell id="xeWCrQ4HdHet1reBAJsR-27" value="Document &lt;br&gt;Registry" style="ellipse;whiteSpace=wrap;html=1;labelBackgroundColor=none;fillColor=#333333;strokeColor=#314354;fontColor=#F5F5F5;" parent="1" vertex="1">
          <mxGeometry x="330" y="130" width="120" height="80" as="geometry" />
        </mxCell>
        <mxCell id="xeWCrQ4HdHet1reBAJsR-28" value="Document &lt;br&gt;Repository" style="ellipse;whiteSpace=wrap;html=1;labelBackgroundColor=none;fillColor=#333333;strokeColor=#314354;fontColor=#F5F5F5;" parent="1" vertex="1">
          <mxGeometry x="370" y="210" width="120" height="80" as="geometry" />
        </mxCell>
        <mxCell id="xeWCrQ4HdHet1reBAJsR-29" value="" style="rounded=0;whiteSpace=wrap;html=1;dashed=1;dashPattern=12 12;" parent="1" vertex="1">
          <mxGeometry x="520" y="20" width="250" height="210" as="geometry" />
        </mxCell>
        <mxCell id="xeWCrQ4HdHet1reBAJsR-30" value="Personal Zone" style="text;html=1;strokeColor=none;fillColor=none;align=center;verticalAlign=middle;whiteSpace=wrap;rounded=0;fontStyle=1" parent="1" vertex="1">
          <mxGeometry x="660" y="20" width="110" height="30" as="geometry" />
        </mxCell>
        <mxCell id="xeWCrQ4HdHet1reBAJsR-31" value="Versicherter 1" style="text;html=1;strokeColor=none;fillColor=none;align=right;verticalAlign=middle;whiteSpace=wrap;rounded=0;fontStyle=0;fontColor=#A8A8A8;" parent="1" vertex="1">
          <mxGeometry x="600" y="40" width="160" height="30" as="geometry" />
        </mxCell>
        <mxCell id="xeWCrQ4HdHet1reBAJsR-32" value="Document &lt;br&gt;Consumer" style="ellipse;whiteSpace=wrap;html=1;labelBackgroundColor=none;fillColor=#A8A8A8;strokeColor=#23445d;" parent="1" vertex="1">
          <mxGeometry x="540" y="60" width="120" height="80" as="geometry" />
        </mxCell>
        <mxCell id="xeWCrQ4HdHet1reBAJsR-33" value="Document &lt;br&gt;Source" style="ellipse;whiteSpace=wrap;html=1;labelBackgroundColor=none;fillColor=#A8A8A8;strokeColor=#23445d;" parent="1" vertex="1">
          <mxGeometry x="630" y="130" width="120" height="80" as="geometry" />
        </mxCell>
        <mxCell id="xeWCrQ4HdHet1reBAJsR-34" value="" style="rounded=0;whiteSpace=wrap;html=1;dashed=1;dashPattern=12 12;" parent="1" vertex="1">
          <mxGeometry x="520" y="240" width="250" height="230" as="geometry" />
        </mxCell>
        <mxCell id="xeWCrQ4HdHet1reBAJsR-35" value="Personal Zone" style="text;html=1;strokeColor=none;fillColor=none;align=center;verticalAlign=middle;whiteSpace=wrap;rounded=0;fontStyle=1" parent="1" vertex="1">
          <mxGeometry x="660" y="240" width="110" height="30" as="geometry" />
        </mxCell>
        <mxCell id="xeWCrQ4HdHet1reBAJsR-36" value="Vertreter" style="text;html=1;strokeColor=none;fillColor=none;align=right;verticalAlign=middle;whiteSpace=wrap;rounded=0;fontStyle=0;fontColor=#A8A8A8;" parent="1" vertex="1">
          <mxGeometry x="600" y="260" width="160" height="30" as="geometry" />
        </mxCell>
        <mxCell id="xeWCrQ4HdHet1reBAJsR-37" value="Document &lt;br&gt;Consumer" style="ellipse;whiteSpace=wrap;html=1;labelBackgroundColor=none;fillColor=#A8A8A8;strokeColor=#23445d;" parent="1" vertex="1">
          <mxGeometry x="570" y="260" width="120" height="80" as="geometry" />
        </mxCell>
        <mxCell id="xeWCrQ4HdHet1reBAJsR-38" value="Document &lt;br&gt;Source" style="ellipse;whiteSpace=wrap;html=1;labelBackgroundColor=none;fillColor=#A8A8A8;strokeColor=#23445d;" parent="1" vertex="1">
          <mxGeometry x="590" y="380" width="120" height="80" as="geometry" />
        </mxCell>
        <mxCell id="xeWCrQ4HdHet1reBAJsR-39" value="" style="rounded=0;whiteSpace=wrap;html=1;dashed=1;dashPattern=12 12;labelBorderColor=none;" parent="1" vertex="1">
          <mxGeometry x="520" y="480" width="250" height="210" as="geometry" />
        </mxCell>
        <mxCell id="xeWCrQ4HdHet1reBAJsR-40" value="Personal Zone" style="text;html=1;strokeColor=none;fillColor=none;align=center;verticalAlign=middle;whiteSpace=wrap;rounded=0;fontStyle=1;labelBorderColor=none;" parent="1" vertex="1">
          <mxGeometry x="660" y="480" width="110" height="30" as="geometry" />
        </mxCell>
        <mxCell id="xeWCrQ4HdHet1reBAJsR-41" value="Versicherter n" style="text;html=1;strokeColor=none;fillColor=none;align=right;verticalAlign=middle;whiteSpace=wrap;rounded=0;fontStyle=0;fontColor=#A8A8A8;labelBorderColor=none;" parent="1" vertex="1">
          <mxGeometry x="600" y="500" width="160" height="30" as="geometry" />
        </mxCell>
        <mxCell id="xeWCrQ4HdHet1reBAJsR-45" style="rounded=0;orthogonalLoop=1;jettySize=auto;html=1;exitX=0;exitY=0;exitDx=0;exitDy=0;entryX=1;entryY=0.5;entryDx=0;entryDy=0;labelBorderColor=none;" parent="1" source="xeWCrQ4HdHet1reBAJsR-42" target="xeWCrQ4HdHet1reBAJsR-21" edge="1">
          <mxGeometry relative="1" as="geometry" />
        </mxCell>
        <mxCell id="xeWCrQ4HdHet1reBAJsR-46" value="2. Query" style="edgeLabel;html=1;align=center;verticalAlign=middle;resizable=0;points=[];labelBorderColor=none;" parent="xeWCrQ4HdHet1reBAJsR-45" vertex="1" connectable="0">
          <mxGeometry x="0.0521" y="-1" relative="1" as="geometry">
            <mxPoint x="45" y="-5" as="offset" />
          </mxGeometry>
        </mxCell>
        <mxCell id="xeWCrQ4HdHet1reBAJsR-42" value="Document &lt;br&gt;Consumer" style="ellipse;whiteSpace=wrap;html=1;labelBackgroundColor=none;fillColor=#A8A8A8;strokeColor=#23445d;labelBorderColor=none;" parent="1" vertex="1">
          <mxGeometry x="550" y="530" width="120" height="80" as="geometry" />
        </mxCell>
        <mxCell id="xeWCrQ4HdHet1reBAJsR-43" value="Document &lt;br&gt;Source" style="ellipse;whiteSpace=wrap;html=1;labelBackgroundColor=none;fillColor=#A8A8A8;strokeColor=#23445d;labelBorderColor=none;" parent="1" vertex="1">
          <mxGeometry x="640" y="600" width="120" height="80" as="geometry" />
        </mxCell>
        <mxCell id="xeWCrQ4HdHet1reBAJsR-47" style="rounded=0;orthogonalLoop=1;jettySize=auto;html=1;exitX=0.017;exitY=0.325;exitDx=0;exitDy=0;entryX=1;entryY=0.5;entryDx=0;entryDy=0;exitPerimeter=0;labelBorderColor=none;" parent="1" source="xeWCrQ4HdHet1reBAJsR-43" edge="1">
          <mxGeometry relative="1" as="geometry">
            <mxPoint x="608" y="626" as="sourcePoint" />
            <mxPoint x="490" y="594" as="targetPoint" />
          </mxGeometry>
        </mxCell>
        <mxCell id="xeWCrQ4HdHet1reBAJsR-48" value="1. Provide &amp;amp; &lt;br&gt;Register" style="edgeLabel;html=1;align=center;verticalAlign=middle;resizable=0;points=[];labelBorderColor=none;" parent="xeWCrQ4HdHet1reBAJsR-47" vertex="1" connectable="0">
          <mxGeometry x="0.0521" y="-1" relative="1" as="geometry">
            <mxPoint x="-10" y="19" as="offset" />
          </mxGeometry>
        </mxCell>
        <mxCell id="xeWCrQ4HdHet1reBAJsR-49" style="rounded=0;orthogonalLoop=1;jettySize=auto;html=1;entryX=1;entryY=0;entryDx=0;entryDy=0;exitX=0;exitY=0.5;exitDx=0;exitDy=0;labelBorderColor=none;" parent="1" source="xeWCrQ4HdHet1reBAJsR-42" target="xeWCrQ4HdHet1reBAJsR-23" edge="1">
          <mxGeometry relative="1" as="geometry">
            <mxPoint x="578" y="656" as="sourcePoint" />
            <mxPoint x="460" y="624" as="targetPoint" />
          </mxGeometry>
        </mxCell>
        <mxCell id="xeWCrQ4HdHet1reBAJsR-50" value="3. Retrieve" style="edgeLabel;html=1;align=center;verticalAlign=middle;resizable=0;points=[];labelBorderColor=none;" parent="xeWCrQ4HdHet1reBAJsR-49" vertex="1" connectable="0">
          <mxGeometry x="0.0521" y="-1" relative="1" as="geometry">
            <mxPoint y="-15" as="offset" />
          </mxGeometry>
        </mxCell>
        <mxCell id="jhNRllf4sLCRepRRIfpa-2" style="rounded=0;orthogonalLoop=1;jettySize=auto;html=1;exitX=1;exitY=0.5;exitDx=0;exitDy=0;entryX=0;entryY=0.5;entryDx=0;entryDy=0;labelBorderColor=none;" parent="1" source="xeWCrQ4HdHet1reBAJsR-17" target="xeWCrQ4HdHet1reBAJsR-23" edge="1">
          <mxGeometry relative="1" as="geometry">
            <mxPoint x="652" y="636" as="sourcePoint" />
            <mxPoint x="500" y="604" as="targetPoint" />
          </mxGeometry>
        </mxCell>
        <mxCell id="jhNRllf4sLCRepRRIfpa-3" value="1. Provide &amp;amp; &lt;br&gt;Register" style="edgeLabel;html=1;align=center;verticalAlign=middle;resizable=0;points=[];labelBorderColor=none;" parent="jhNRllf4sLCRepRRIfpa-2" vertex="1" connectable="0">
          <mxGeometry x="0.0521" y="-1" relative="1" as="geometry">
            <mxPoint x="17" y="20" as="offset" />
          </mxGeometry>
        </mxCell>
        <mxCell id="jhNRllf4sLCRepRRIfpa-6" style="rounded=0;orthogonalLoop=1;jettySize=auto;html=1;exitX=0.817;exitY=0.113;exitDx=0;exitDy=0;entryX=0;entryY=1;entryDx=0;entryDy=0;labelBorderColor=none;exitPerimeter=0;" parent="1" source="xeWCrQ4HdHet1reBAJsR-13" target="xeWCrQ4HdHet1reBAJsR-28" edge="1">
          <mxGeometry relative="1" as="geometry">
            <mxPoint x="267" y="615" as="sourcePoint" />
            <mxPoint x="425" y="298" as="targetPoint" />
          </mxGeometry>
        </mxCell>
        <mxCell id="jhNRllf4sLCRepRRIfpa-7" value="1. Provide &amp;amp; &lt;br&gt;Register" style="edgeLabel;html=1;align=center;verticalAlign=middle;resizable=0;points=[];labelBorderColor=none;" parent="jhNRllf4sLCRepRRIfpa-6" vertex="1" connectable="0">
          <mxGeometry x="0.0521" y="-1" relative="1" as="geometry">
            <mxPoint x="14" y="30" as="offset" />
          </mxGeometry>
        </mxCell>
        <mxCell id="jhNRllf4sLCRepRRIfpa-4" style="rounded=0;orthogonalLoop=1;jettySize=auto;html=1;exitX=0.888;exitY=0.188;exitDx=0;exitDy=0;entryX=0.371;entryY=0.981;entryDx=0;entryDy=0;labelBorderColor=none;entryPerimeter=0;exitPerimeter=0;" parent="1" source="xeWCrQ4HdHet1reBAJsR-17" target="xeWCrQ4HdHet1reBAJsR-28" edge="1">
          <mxGeometry relative="1" as="geometry">
            <mxPoint x="280" y="640" as="sourcePoint" />
            <mxPoint x="380" y="600" as="targetPoint" />
          </mxGeometry>
        </mxCell>
        <mxCell id="jhNRllf4sLCRepRRIfpa-5" value="1. Provide &amp;amp; &lt;br&gt;Register" style="edgeLabel;html=1;align=center;verticalAlign=middle;resizable=0;points=[];labelBorderColor=none;" parent="jhNRllf4sLCRepRRIfpa-4" vertex="1" connectable="0">
          <mxGeometry x="0.0521" y="-1" relative="1" as="geometry">
            <mxPoint x="40" y="1" as="offset" />
          </mxGeometry>
        </mxCell>
        <mxCell id="jhNRllf4sLCRepRRIfpa-8" style="rounded=0;orthogonalLoop=1;jettySize=auto;html=1;exitX=1;exitY=1;exitDx=0;exitDy=0;entryX=0.021;entryY=0.331;entryDx=0;entryDy=0;labelBorderColor=none;entryPerimeter=0;" parent="1" source="xeWCrQ4HdHet1reBAJsR-13" target="xeWCrQ4HdHet1reBAJsR-23" edge="1">
          <mxGeometry relative="1" as="geometry">
            <mxPoint x="280" y="640" as="sourcePoint" />
            <mxPoint x="380" y="600" as="targetPoint" />
          </mxGeometry>
        </mxCell>
        <mxCell id="jhNRllf4sLCRepRRIfpa-9" value="1. Provide &lt;br&gt;&amp;amp; &lt;br&gt;Register" style="edgeLabel;html=1;align=center;verticalAlign=middle;resizable=0;points=[];labelBorderColor=none;" parent="jhNRllf4sLCRepRRIfpa-8" vertex="1" connectable="0">
          <mxGeometry x="0.0521" y="-1" relative="1" as="geometry">
            <mxPoint x="15" y="34" as="offset" />
          </mxGeometry>
        </mxCell>
        <mxCell id="jhNRllf4sLCRepRRIfpa-10" style="rounded=0;orthogonalLoop=1;jettySize=auto;html=1;entryX=1;entryY=0.5;entryDx=0;entryDy=0;labelBorderColor=none;exitX=0.048;exitY=0.278;exitDx=0;exitDy=0;exitPerimeter=0;" parent="1" source="xeWCrQ4HdHet1reBAJsR-37" target="xeWCrQ4HdHet1reBAJsR-27" edge="1">
          <mxGeometry relative="1" as="geometry">
            <mxPoint x="609" y="262" as="sourcePoint" />
            <mxPoint x="482" y="250" as="targetPoint" />
          </mxGeometry>
        </mxCell>
        <mxCell id="jhNRllf4sLCRepRRIfpa-11" value="2. Query" style="edgeLabel;html=1;align=center;verticalAlign=middle;resizable=0;points=[];labelBorderColor=none;" parent="jhNRllf4sLCRepRRIfpa-10" vertex="1" connectable="0">
          <mxGeometry x="0.0521" y="-1" relative="1" as="geometry">
            <mxPoint x="70" y="35" as="offset" />
          </mxGeometry>
        </mxCell>
        <mxCell id="jhNRllf4sLCRepRRIfpa-12" style="rounded=0;orthogonalLoop=1;jettySize=auto;html=1;labelBorderColor=none;exitX=0.035;exitY=0.298;exitDx=0;exitDy=0;exitPerimeter=0;entryX=0.742;entryY=0.913;entryDx=0;entryDy=0;entryPerimeter=0;" parent="1" source="xeWCrQ4HdHet1reBAJsR-38" target="xeWCrQ4HdHet1reBAJsR-28" edge="1">
          <mxGeometry relative="1" as="geometry">
            <mxPoint x="650" y="390" as="sourcePoint" />
            <mxPoint x="498" y="358" as="targetPoint" />
          </mxGeometry>
        </mxCell>
        <mxCell id="jhNRllf4sLCRepRRIfpa-13" value="1. Provide &amp;amp; &lt;br&gt;Register" style="edgeLabel;html=1;align=center;verticalAlign=middle;resizable=0;points=[];labelBorderColor=none;" parent="jhNRllf4sLCRepRRIfpa-12" vertex="1" connectable="0">
          <mxGeometry x="0.0521" y="-1" relative="1" as="geometry">
            <mxPoint x="28" y="70" as="offset" />
          </mxGeometry>
        </mxCell>
        <mxCell id="jhNRllf4sLCRepRRIfpa-16" style="rounded=0;orthogonalLoop=1;jettySize=auto;html=1;labelBorderColor=none;exitX=0;exitY=0.5;exitDx=0;exitDy=0;" parent="1" source="xeWCrQ4HdHet1reBAJsR-37" target="xeWCrQ4HdHet1reBAJsR-28" edge="1">
          <mxGeometry relative="1" as="geometry">
            <mxPoint x="630" y="383" as="sourcePoint" />
            <mxPoint x="410" y="352" as="targetPoint" />
          </mxGeometry>
        </mxCell>
        <mxCell id="jhNRllf4sLCRepRRIfpa-17" value="3. Retrieve" style="edgeLabel;html=1;align=center;verticalAlign=middle;resizable=0;points=[];labelBorderColor=none;" parent="jhNRllf4sLCRepRRIfpa-16" vertex="1" connectable="0">
          <mxGeometry x="0.0521" y="-1" relative="1" as="geometry">
            <mxPoint x="-4" y="17" as="offset" />
          </mxGeometry>
        </mxCell>
        <mxCell id="jhNRllf4sLCRepRRIfpa-18" style="rounded=0;orthogonalLoop=1;jettySize=auto;html=1;entryX=0;entryY=0.5;entryDx=0;entryDy=0;labelBorderColor=none;" parent="1" source="xeWCrQ4HdHet1reBAJsR-7" target="xeWCrQ4HdHet1reBAJsR-28" edge="1">
          <mxGeometry relative="1" as="geometry">
            <mxPoint x="258" y="374" as="sourcePoint" />
            <mxPoint x="398" y="223" as="targetPoint" />
          </mxGeometry>
        </mxCell>
        <mxCell id="jhNRllf4sLCRepRRIfpa-19" value="1. Provide &amp;amp; &lt;br&gt;Register" style="edgeLabel;html=1;align=center;verticalAlign=middle;resizable=0;points=[];labelBorderColor=none;" parent="jhNRllf4sLCRepRRIfpa-18" vertex="1" connectable="0">
          <mxGeometry x="0.0521" y="-1" relative="1" as="geometry">
            <mxPoint x="14" y="17" as="offset" />
          </mxGeometry>
        </mxCell>
        <mxCell id="jhNRllf4sLCRepRRIfpa-20" style="rounded=0;orthogonalLoop=1;jettySize=auto;html=1;labelBorderColor=none;entryX=0.055;entryY=0.253;entryDx=0;entryDy=0;entryPerimeter=0;" parent="1" source="xeWCrQ4HdHet1reBAJsR-6" target="xeWCrQ4HdHet1reBAJsR-28" edge="1">
          <mxGeometry relative="1" as="geometry">
            <mxPoint x="640" y="393" as="sourcePoint" />
            <mxPoint x="483" y="288" as="targetPoint" />
          </mxGeometry>
        </mxCell>
        <mxCell id="jhNRllf4sLCRepRRIfpa-21" value="3. Retrieve" style="edgeLabel;html=1;align=center;verticalAlign=middle;resizable=0;points=[];labelBorderColor=none;" parent="jhNRllf4sLCRepRRIfpa-20" vertex="1" connectable="0">
          <mxGeometry x="0.0521" y="-1" relative="1" as="geometry">
            <mxPoint x="-63" y="-58" as="offset" />
          </mxGeometry>
        </mxCell>
        <mxCell id="jhNRllf4sLCRepRRIfpa-22" style="rounded=0;orthogonalLoop=1;jettySize=auto;html=1;labelBorderColor=none;exitX=1;exitY=0;exitDx=0;exitDy=0;" parent="1" source="xeWCrQ4HdHet1reBAJsR-6" target="xeWCrQ4HdHet1reBAJsR-27" edge="1">
          <mxGeometry relative="1" as="geometry">
            <mxPoint x="226" y="192" as="sourcePoint" />
            <mxPoint x="100" y="80" as="targetPoint" />
          </mxGeometry>
        </mxCell>
        <mxCell id="jhNRllf4sLCRepRRIfpa-23" value="2. Query" style="edgeLabel;html=1;align=center;verticalAlign=middle;resizable=0;points=[];labelBorderColor=none;" parent="jhNRllf4sLCRepRRIfpa-22" vertex="1" connectable="0">
          <mxGeometry x="0.0521" y="-1" relative="1" as="geometry">
            <mxPoint x="70" y="35" as="offset" />
          </mxGeometry>
        </mxCell>
        <mxCell id="jhNRllf4sLCRepRRIfpa-24" style="rounded=0;orthogonalLoop=1;jettySize=auto;html=1;entryX=1;entryY=0;entryDx=0;entryDy=0;labelBorderColor=none;exitX=0.083;exitY=0.75;exitDx=0;exitDy=0;exitPerimeter=0;" parent="1" source="xeWCrQ4HdHet1reBAJsR-32" target="xeWCrQ4HdHet1reBAJsR-27" edge="1">
          <mxGeometry relative="1" as="geometry">
            <mxPoint x="586" y="292" as="sourcePoint" />
            <mxPoint x="460" y="180" as="targetPoint" />
          </mxGeometry>
        </mxCell>
        <mxCell id="jhNRllf4sLCRepRRIfpa-25" value="2. Query" style="edgeLabel;html=1;align=center;verticalAlign=middle;resizable=0;points=[];labelBorderColor=none;" parent="jhNRllf4sLCRepRRIfpa-24" vertex="1" connectable="0">
          <mxGeometry x="0.0521" y="-1" relative="1" as="geometry">
            <mxPoint x="-8" y="-20" as="offset" />
          </mxGeometry>
        </mxCell>
        <mxCell id="jhNRllf4sLCRepRRIfpa-26" style="rounded=0;orthogonalLoop=1;jettySize=auto;html=1;labelBorderColor=none;exitX=0;exitY=1;exitDx=0;exitDy=0;" parent="1" source="xeWCrQ4HdHet1reBAJsR-32" target="xeWCrQ4HdHet1reBAJsR-27" edge="1">
          <mxGeometry relative="1" as="geometry">
            <mxPoint x="557" y="185.5" as="sourcePoint" />
            <mxPoint x="470" y="154.5" as="targetPoint" />
          </mxGeometry>
        </mxCell>
        <mxCell id="jhNRllf4sLCRepRRIfpa-27" value="3. Retrieve" style="edgeLabel;html=1;align=center;verticalAlign=middle;resizable=0;points=[];labelBorderColor=none;" parent="jhNRllf4sLCRepRRIfpa-26" vertex="1" connectable="0">
          <mxGeometry x="0.0521" y="-1" relative="1" as="geometry">
            <mxPoint x="-4" y="17" as="offset" />
          </mxGeometry>
        </mxCell>
        <mxCell id="jhNRllf4sLCRepRRIfpa-28" style="rounded=0;orthogonalLoop=1;jettySize=auto;html=1;labelBorderColor=none;" parent="1" source="xeWCrQ4HdHet1reBAJsR-33" target="xeWCrQ4HdHet1reBAJsR-28" edge="1">
          <mxGeometry relative="1" as="geometry">
            <mxPoint x="604" y="414" as="sourcePoint" />
            <mxPoint x="469" y="293" as="targetPoint" />
          </mxGeometry>
        </mxCell>
        <mxCell id="jhNRllf4sLCRepRRIfpa-29" value="1. Provide &amp;amp; &lt;br&gt;Register" style="edgeLabel;html=1;align=center;verticalAlign=middle;resizable=0;points=[];labelBorderColor=none;" parent="jhNRllf4sLCRepRRIfpa-28" vertex="1" connectable="0">
          <mxGeometry x="0.0521" y="-1" relative="1" as="geometry">
            <mxPoint x="14" y="-30" as="offset" />
          </mxGeometry>
        </mxCell>
      </root>
    </mxGraphModel>
  </diagram>
  <diagram id="O5jFpuxB7dCEjr9WNafW" name="Page-2">
    <mxGraphModel dx="1194" dy="824" grid="1" gridSize="10" guides="1" tooltips="1" connect="1" arrows="1" fold="1" page="1" pageScale="1" pageWidth="827" pageHeight="1169" math="0" shadow="0">
      <root>
        <mxCell id="0" />
        <mxCell id="1" parent="0" />
      </root>
    </mxGraphModel>
  </diagram>
</mxfile>
